<?xml version="1.0" encoding="UTF-8" standalone="no"?>
<!DOCTYPE svg PUBLIC "-//W3C//DTD SVG 1.1//EN"
 "http://www.w3.org/Graphics/SVG/1.1/DTD/svg11.dtd">
<!-- Generated by graphviz version 2.38.0 (20140413.2041)
 -->
<!-- Title: controllers_diagram Pages: 1 -->
<svg width="479pt" height="323pt"
 viewBox="0.00 0.00 479.40 323.27" xmlns="http://www.w3.org/2000/svg" xmlns:xlink="http://www.w3.org/1999/xlink">
<g id="graph0" class="graph" transform="scale(1 1) rotate(0) translate(135.713 209.5)">
<title>controllers_diagram</title>
<polygon fill="white" stroke="none" points="-135.713,113.772 -135.713,-209.5 343.688,-209.5 343.688,113.772 -135.713,113.772"/>
<!-- _diagram_info -->
<g id="node1" class="node"><title>_diagram_info</title>
<text text-anchor="start" x="140.312" y="-191.1" font-family="Times,serif" font-size="13.00">Controllers diagram</text>
<text text-anchor="start" x="140.312" y="-178.1" font-family="Times,serif" font-size="13.00">Date: May 28 2014 &#45; 12:21</text>
<text text-anchor="start" x="140.312" y="-165.1" font-family="Times,serif" font-size="13.00">Migration version: 20140131044224</text>
<text text-anchor="start" x="140.312" y="-152.1" font-family="Times,serif" font-size="13.00">Generated by RailRoady 1.1.1</text>
<text text-anchor="start" x="140.312" y="-139.1" font-family="Times,serif" font-size="13.00">http://railroady.prestonlee.com</text>
</g>
<!-- ApplicationController -->
<g id="node2" class="node"><title>ApplicationController</title>
<path fill="none" stroke="black" d="M-119.713,46.4725C-119.713,46.4725 -4.07151,46.4725 -4.07151,46.4725 1.92849,46.4725 7.92849,40.4725 7.92849,34.4725 7.92849,34.4725 7.92849,-33.5275 7.92849,-33.5275 7.92849,-39.5275 1.92849,-45.5275 -4.07151,-45.5275 -4.07151,-45.5275 -119.713,-45.5275 -119.713,-45.5275 -125.713,-45.5275 -131.713,-39.5275 -131.713,-33.5275 -131.713,-33.5275 -131.713,34.4725 -131.713,34.4725 -131.713,40.4725 -125.713,46.4725 -119.713,46.4725"/>
<text text-anchor="middle" x="-61.8923" y="-30.3275" font-family="Times,serif" font-size="14.00">ApplicationController</text>
<polyline fill="none" stroke="black" points="-131.713,-23.5275 7.92849,-23.5275 "/>
<polyline fill="none" stroke="black" points="-131.713,0.472461 7.92849,0.472461 "/>
<polyline fill="none" stroke="black" points="-131.713,24.4725 7.92849,24.4725 "/>
<text text-anchor="start" x="-123.713" y="39.6725" font-family="Times,serif" font-size="14.00">_layout</text>
</g>
<!-- FeedsController -->
<g id="node3" class="node"><title>FeedsController</title>
<path fill="none" stroke="black" d="M30.5964,109.272C30.5964,109.272 112.803,109.272 112.803,109.272 118.803,109.272 124.803,103.272 124.803,97.2722 124.803,97.2722 124.803,-80.7278 124.803,-80.7278 124.803,-86.7278 118.803,-92.7278 112.803,-92.7278 112.803,-92.7278 30.5964,-92.7278 30.5964,-92.7278 24.5964,-92.7278 18.5964,-86.7278 18.5964,-80.7278 18.5964,-80.7278 18.5964,97.2722 18.5964,97.2722 18.5964,103.272 24.5964,109.272 30.5964,109.272"/>
<text text-anchor="middle" x="71.6999" y="-77.5278" font-family="Times,serif" font-size="14.00">FeedsController</text>
<polyline fill="none" stroke="black" points="18.5964,-70.7278 124.803,-70.7278 "/>
<text text-anchor="start" x="26.5964" y="-55.5278" font-family="Times,serif" font-size="14.00">create</text>
<text text-anchor="start" x="26.5964" y="-41.5278" font-family="Times,serif" font-size="14.00">destroy</text>
<text text-anchor="start" x="26.5964" y="-27.5278" font-family="Times,serif" font-size="14.00">edit</text>
<text text-anchor="start" x="26.5964" y="-13.5278" font-family="Times,serif" font-size="14.00">index</text>
<text text-anchor="start" x="26.5964" y="0.472178" font-family="Times,serif" font-size="14.00">new</text>
<text text-anchor="start" x="26.5964" y="14.4722" font-family="Times,serif" font-size="14.00">readers</text>
<text text-anchor="start" x="26.5964" y="28.4722" font-family="Times,serif" font-size="14.00">show</text>
<text text-anchor="start" x="26.5964" y="42.4722" font-family="Times,serif" font-size="14.00">update</text>
<polyline fill="none" stroke="black" points="18.5964,49.2722 124.803,49.2722 "/>
<polyline fill="none" stroke="black" points="18.5964,73.2722 124.803,73.2722 "/>
<text text-anchor="start" x="26.5964" y="88.4722" font-family="Times,serif" font-size="14.00">_layout</text>
<text text-anchor="start" x="26.5964" y="102.472" font-family="Times,serif" font-size="14.00">feed_params</text>
</g>
<!-- ApplicationController&#45;&gt;FeedsController -->
<g id="edge1" class="edge"><title>ApplicationController&#45;&gt;FeedsController</title>
<path fill="none" stroke="black" d="M8.03386,4.55507C11.5692,4.76147 15.0928,4.9672 18.5649,5.16992"/>
</g>
</g>
</svg>
